<svg xmlns="http://www.w3.org/2000/svg" version="1.1" viewBox="-5.0 -10.0 110.0 135.0">
 <path d="m86.469 44.793c2.293 0 4.1523 1.8477 4.1562 4.1367v9.4023c0 5.7891 0.003906 10.363-0.36719 14.012-0.375 3.6953-1.1641 6.7852-2.9688 9.4844-1.4453 2.1602-3.3008 4.0156-5.4609 5.4609-2.6992 1.8047-5.7891 2.5938-9.4844 2.9688-3.6484 0.37109-8.2227 0.36719-14.012 0.36719h-16.664c-5.7891 0-10.363 0.003906-14.012-0.36719-3.6953-0.375-6.7852-1.1641-9.4844-2.9688-2.1602-1.4453-4.0156-3.3008-5.4609-5.4609-1.8047-2.6992-2.5938-5.7891-2.9688-9.4844-0.37109-3.6484-0.36719-8.2227-0.36719-14.012v-9.4023c0.003906-2.2891 1.8633-4.1367 4.1562-4.1367zm-38.426 8.207c-1.2188-1.2227-3.1992-1.2227-4.418 0l-10.418 10.414c-0.20312 0.20313-0.35938 0.43359-0.49609 0.66797-0.0625 0.10938-0.125 0.21094-0.17578 0.32812l-0.015625 0.039063c-0.082031 0.20312-0.14062 0.41016-0.17969 0.62109-0.03125 0.17969-0.046875 0.36719-0.046875 0.55469s0.015625 0.36719 0.046875 0.54688c0.039062 0.21875 0.10156 0.4375 0.1875 0.64453 0.085937 0.21094 0.19922 0.40625 0.32422 0.58984 0.10547 0.15234 0.22266 0.29688 0.35547 0.42969l10.418 10.414c1.2188 1.2227 3.1992 1.2227 4.418 0 1.2188-1.2188 1.2188-3.1992 0-4.418l-5.082-5.082h21.621c1.7266 0 3.125-1.3984 3.125-3.125s-1.3984-3.125-3.125-3.125h-21.621l5.082-5.082c1.2188-1.2188 1.2188-3.1992 0-4.418z" fill-rule="evenodd"/>
 <path d="m66.668 9.375c1.7227 0 3.125 1.3984 3.125 3.125v5.3789c0.89453 0.050782 1.7461 0.11328 2.5508 0.19531 3.6953 0.375 6.7852 1.168 9.4844 2.9688 2.1602 1.4453 4.0156 3.3008 5.4609 5.4609 1.8047 2.7031 2.5938 5.7891 2.9688 9.4883 0.14063 1.3789-0.97656 2.5508-2.3672 2.5508h-75.781c-1.3906 0-2.5078-1.1719-2.3672-2.5508 0.375-3.6992 1.1641-6.7852 2.9688-9.4883 1.4453-2.1602 3.3008-4.0156 5.4609-5.4609 2.6992-1.8008 5.7891-2.5938 9.4844-2.9688 0.80469-0.082031 1.6562-0.14453 2.5508-0.19531v-5.3789c0-1.7266 1.4023-3.125 3.125-3.125 1.7266 0 3.125 1.3984 3.125 3.125v5.2188c1.6172-0.011719 3.3516-0.011719 5.2109-0.011719h16.664c1.8594 0 3.5938 0 5.2109 0.011719v-5.2188c0-1.7266 1.3984-3.125 3.125-3.125z"/></svg>