<svg xmlns="http://www.w3.org/2000/svg" version="1.1" viewBox="-5.0 -10.0 110.0 135.0">
 <path d="m22.93 92.32v-20.109c0.0625-1.5625-1.1211-2.8906-2.6797-3h-10c-1.5586 0.10937-2.7422 1.4375-2.6797 3v20.109c-0.09375 1.5781 1.1016 2.9375 2.6797 3.0508h10c1.5781-0.11328 2.7734-1.4727 2.6797-3.0508zm55.43-81.66c-11.02 11.965-25.02 20.789-40.57 25.57-5.4023 1.7031-10.941 2.9375-16.559 3.6797-2.2031 0.30078-4.418 0.48047-6.6406 0.53906-0.76562-0.035157-1.5117 0.24219-2.0625 0.77734-0.55078 0.53125-0.85938 1.2656-0.85156 2.0312 0.007813 0.76563 0.33203 1.4922 0.89453 2.0117s1.3164 0.78516 2.0781 0.73047c2.4336-0.0625 4.8594-0.25781 7.2734-0.58984 5.9375-0.78516 11.797-2.0859 17.508-3.8906 16.504-5.0781 31.359-14.441 43.059-27.141l0.12109 1.6211c0.17578 1.4766 1.4805 2.5547 2.9609 2.4492 1.4844-0.10938 2.6211-1.3633 2.5781-2.8477l-0.60938-8.3594v-0.003907c-0.050781-0.73828-0.39453-1.4297-0.96094-1.9141-0.5625-0.48438-1.2969-0.72656-2.0391-0.66406l-8.3594 0.60938c-1.5312 0.10938-2.6836 1.4414-2.5742 2.9766 0.10938 1.5312 1.4414 2.6836 2.9727 2.5742l1.75-0.12891zm14.102 81.66c0.089843 1.5781-1.1055 2.9375-2.6797 3.0508h-10c-1.5781-0.11328-2.7734-1.4727-2.6797-3.0508v-60.648c-0.097656-1.5859 1.0977-2.9492 2.6797-3.0625h10c1.582 0.11328 2.7773 1.4766 2.6797 3.0625zm-23.18 0c0.097656 1.5781-1.0938 2.9375-2.6719 3.0508h-10c-1.5742-0.11328-2.7656-1.4727-2.668-3.0508v-47.141c-0.070312-1.5586 1.1133-2.8867 2.668-3h10c1.5547 0.11328 2.7383 1.4414 2.6719 3zm-23.18 0v-33.621c0.097657-1.5781-1.0938-2.9414-2.6719-3.0586h-10c-1.5781 0.11719-2.7656 1.4805-2.668 3.0586v33.621c-0.097657 1.5781 1.0938 2.9375 2.668 3.0508h10c1.5781-0.11328 2.7656-1.4727 2.6719-3.0508z" fill-rule="evenodd"/></svg>