<svg xmlns:dc="http://purl.org/dc/elements/1.1/" xmlns:cc="http://creativecommons.org/ns#" xmlns:rdf="http://www.w3.org/1999/02/22-rdf-syntax-ns#" xmlns:svg="http://www.w3.org/2000/svg" xmlns="http://www.w3.org/2000/svg" xmlns:sodipodi="http://sodipodi.sourceforge.net/DTD/sodipodi-0.dtd" xmlns:inkscape="http://www.inkscape.org/namespaces/inkscape" viewBox="-0.317499995 -0.317499995 6.98499989 6.98499989" version="1.1" x="0px" y="0px"><g transform="translate(0,-290.64999)"><path style="color:#000000;font-style:normal;font-variant:normal;font-weight:normal;font-stretch:normal;font-size:medium;line-height:normal;font-family:sans-serif;font-variant-ligatures:normal;font-variant-position:normal;font-variant-caps:normal;font-variant-numeric:normal;font-variant-alternates:normal;font-feature-settings:normal;text-indent:0;text-align:start;text-decoration:none;text-decoration-line:none;text-decoration-style:solid;text-decoration-color:#000000;letter-spacing:normal;word-spacing:normal;text-transform:none;writing-mode:lr-tb;direction:ltr;text-orientation:mixed;dominant-baseline:auto;baseline-shift:baseline;text-anchor:start;white-space:normal;shape-padding:0;clip-rule:nonzero;display:inline;overflow:visible;visibility:visible;opacity:1;isolation:auto;mix-blend-mode:normal;color-interpolation:sRGB;color-interpolation-filters:linearRGB;solid-color:#000000;solid-opacity:1;vector-effect:none;fill:#000000;fill-opacity:1;fill-rule:nonzero;stroke:none;stroke-width:0.5291667;stroke-linecap:round;stroke-linejoin:round;stroke-miterlimit:4;stroke-dasharray:none;stroke-dashoffset:0;stroke-opacity:1;paint-order:stroke fill markers;color-rendering:auto;image-rendering:auto;shape-rendering:auto;text-rendering:auto;enable-background:accumulate" d="m 3.1752567,290.97039 c -1.5731915,0 -2.85357108,1.28245 -2.85357108,2.85564 0,1.57319 1.28037958,2.85357 2.85357108,2.85357 1.573194,0 2.8530577,-1.28038 2.8530577,-2.85357 0,-1.57319 -1.2798637,-2.85564 -2.8530577,-2.85564 z m 0,0.52917 c 1.2872111,0 2.323891,1.03926 2.323891,2.32647 0,1.28721 -1.0366799,2.32389 -2.323891,2.32389 -1.2872086,0 -2.32647342,-1.03668 -2.32647342,-2.32389 0,-1.28721 1.03926482,-2.32647 2.32647342,-2.32647 z m 1.2655576,1.01596 a 0.26460982,0.26460982 0 0 0 -0.2206598,0.10904 L 2.81559,294.49783 1.971712,293.65395 a 0.26460982,0.26460982 0 1 0 -0.3731022,0.37517 l 1.0588494,1.05833 a 0.26460982,0.26460982 0 0 0 0.3984254,-0.0289 l 1.588016,-2.11564 a 0.26460982,0.26460982 0 0 0 -0.2030863,-0.42736 z"/></g></svg>