<svg xmlns="http://www.w3.org/2000/svg" version="1.1" viewBox="-5.0 -5.0 110.0 110.0">
 <path d="m94.988 85.656c-12.914-17.422-30.816-27.883-43.973-40.734-4.0664-3.9727-4.9414-8.2852-4.9688-12.613-0.042969-7.4609-3.3672-12.094-14.09-20.91l-10.285-8.457c-0.77344-0.63672-1.9023-0.58203-2.6094 0.125l-0.070312 0.070313c-0.75781 0.75781-0.75781 1.9883 0 2.75l16.902 16.902c0.86719 0.70703 1.0078 1.9766 0.32422 2.8594-0.88281 0.6875-2.1523 0.54297-2.8594-0.32422l-16.902-16.898c-0.76172-0.75781-1.9922-0.75391-2.75 0.003907-0.75391 0.75781-0.75391 1.9844 0 2.7422l16.902 16.898c0.86719 0.70703 1.0078 1.9766 0.32422 2.8594-0.88281 0.6875-2.1523 0.54297-2.8594-0.32422l-16.902-16.902c-0.76172-0.75781-1.9922-0.75781-2.75 0.003906-0.75781 0.75781-0.75781 1.9883 0 2.7461l16.902 16.902c0.86719 0.70703 1.0078 1.9766 0.32422 2.8594-0.88281 0.6875-2.1523 0.54297-2.8594-0.32422l-16.902-16.895c-0.75781-0.75781-1.9883-0.75781-2.75 0l-0.066407 0.070312c-0.70703 0.70703-0.76172 1.8359-0.125 2.6094l8.457 10.285c8.8164 10.723 13.445 14.051 20.91 14.09 4.3242 0.023438 8.6406 0.90234 12.613 4.9688 12.855 13.156 23.312 31.059 40.734 43.973 4.6094 3.418 7.5664 3.0586 9.9766 0.64453 2.4102-2.418 2.7734-5.3633-0.64844-9.9805z"/>
 <path d="m59.77 47.176c2.8516-1.5234 6.0391-2.3203 9.2734-2.3125 5.8008-0.26562 11.137 0.97266 20.438-8.3281 2.6016-2.6289 4.7188-5.6992 6.2578-9.0625 3.5664-7.5078 1.3555-14.816-3.4062-19.801-4.9844-4.7617-12.293-6.9727-19.801-3.4062-3.3633 1.5391-6.4336 3.6562-9.0625 6.2578-9.3008 9.3008-8.0625 14.637-8.3281 20.438 0.011719 3.3242-0.83203 6.5938-2.4453 9.4961 0.38672 0.51172 0.8125 0.99609 1.2734 1.4492 1.832 1.7891 3.7891 3.5352 5.8008 5.2695z"/>
 <path d="m40.211 52.512c-11.688 9.6836-24.906 19.215-35.125 32.957-3.5039 4.7148-3.1523 7.7109-0.70703 10.152 2.4414 2.4414 5.4375 2.7969 10.152-0.70703 13.672-10.168 23.176-23.305 32.812-34.949-1.7891-2.082-3.5898-4.1016-5.4414-5.9961-0.52344-0.53516-1.0859-1.0195-1.6914-1.457z"/></svg>