<svg xmlns="http://www.w3.org/2000/svg" version="1.1" viewBox="-5.0 -10.0 110.0 135.0">
 <path d="m52.352 33.824 13.531 11.469c2.9414 2.3516 2.9414 6.7656 0 9.4102l-13.531 11.469c-1.4688 1.1758-3.8242 0.29297-3.8242-1.7656v-5.5898l-33.82 0.007813c-2.0586 0-3.8242-1.7656-3.8242-3.8242v-9.707c0-2.0586 1.7656-3.8242 3.8242-3.8242h33.824v-5.5898c-0.29688-2.0547 2.0586-3.2305 3.8203-2.0547z"/>
 <path d="m89.117 16.176v67.648c0 6.1758-5 11.176-11.176 11.176h-44.41c-6.1758 0-11.176-5-11.176-11.176v-20.883h21.469v1.1758c0 2.0586 0.88281 3.5312 2.0586 5 1.1758 1.1758 2.9414 1.7656 4.707 1.7656 1.4688 0 3.2344-0.58984 4.4102-1.4688l13.531-11.469c2.3516-2.0586 3.8242-5 3.8242-7.9414s-1.4688-6.1758-3.8242-7.9414l-13.531-11.469c-1.1758-0.88281-2.6484-1.4688-4.4102-1.4688-3.8242 0-6.7656 2.9414-6.7656 6.7656v1.1758l-21.473-0.007812v-20.883c0-6.1758 5-11.176 11.176-11.176h44.41c6.1797 0.29297 11.18 5 11.18 11.176z"/></svg>