<svg xmlns="http://www.w3.org/2000/svg" version="1.1" viewBox="-5.0 -10.0 110.0 135.0">
 <path d="m60.449 62.391h-10.836v-8.4492h10.836zm-10.84 12.324h10.836v-8.4531h-10.836zm10.84-33.102h-10.836v8.4531h10.836zm-14.711 12.328h-10.836v8.4492h10.836zm-10.836 20.773h10.836v-8.4531h-10.836zm40.258-33.102h-10.844v8.4531h10.844zm0 12.328h-10.844v8.4492h10.844zm14.84 24.543c0 6.3516-5.1641 11.516-11.512 11.516-6.3477 0-11.52-5.168-11.52-11.516 0-6.3516 5.168-11.52 11.52-11.52 6.3516 0 11.512 5.168 11.512 11.52zm-4.5586-5c-0.75391-0.75781-1.9766-0.76562-2.7383-0.011719l-5.9883 5.9375-2.4648-2.3945c-0.76562-0.74219-1.9922-0.72656-2.7383 0.039063-0.74609 0.76562-0.72656 1.9922 0.039062 2.7383l3.8281 3.7188c0.375 0.36328 0.86328 0.54688 1.3477 0.54688 0.49219 0 0.98438-0.1875 1.3633-0.5625l7.3398-7.2734c0.75781-0.75391 0.76562-1.9766 0.011718-2.7383zm-67.188 5.1016c-1.0703 0-1.9336-0.86719-1.9336-1.9336v-36.969c0-1.0703 0.86719-1.9336 1.9336-1.9336h58.844c1.0703 0 1.9336 0.86719 1.9336 1.9336v23.426c2.2656 0.078125 4.4023 0.64844 6.3203 1.6094v-33.734h-75.352v51.012c0 1.8477 1.5078 3.3516 3.3594 3.3516h51.355c-1.0195-2.0391-1.6016-4.3359-1.6172-6.7617zm27.484-36.973h-10.836v8.4531h10.836zm18.582 30.863c1.0508-2.4688 2.7266-4.6055 4.8281-6.2148h-4.8281zm-33.289-18.535h-10.844v8.4492h10.844zm0-12.328h-10.844v8.4531h10.844zm-10.84 33.102h10.844v-8.4531h-10.844zm65.16-55.082c0-1.8477-1.5078-3.3516-3.3594-3.3516h-9.3906v-0.63672c0-3.1133-2.5312-5.6445-5.6406-5.6445-3.1094 0-5.6445 2.5312-5.6445 5.6445v0.63672h3.8711v-0.63672c0-0.97656 0.79688-1.7734 1.7734-1.7734 0.97656 0 1.7695 0.79688 1.7695 1.7734v0.63672h-3.5391v1.707c0 0.97656 0.79688 1.7695 1.7734 1.7695 1.0703 0 1.9336 0.86719 1.9336 1.9336s-0.86719 1.9336-1.9336 1.9336c-3.1133 0-5.6445-2.5273-5.6445-5.6406v-1.707h-8.0078v-0.63672c0-3.1133-2.5273-5.6445-5.6406-5.6445-3.1094 0-5.6406 2.5312-5.6406 5.6445v0.63672h3.8711v-0.63672c0-0.97656 0.79297-1.7734 1.7695-1.7734s1.7695 0.79687 1.7695 1.7734v0.63672h-3.5352v1.707c0 0.97656 0.79297 1.7695 1.7695 1.7695 1.0703 0 1.9336 0.86719 1.9336 1.9336s-0.86719 1.9336-1.9336 1.9336c-3.1094 0-5.6406-2.5273-5.6406-5.6406v-1.707h-8.0078v-0.63672c0-3.1133-2.5312-5.6445-5.6445-5.6445-3.1094 0-5.6406 2.5312-5.6406 5.6445v0.63672h3.8711v-0.63672c0-0.97656 0.79297-1.7734 1.7695-1.7734 0.97656 0 1.7734 0.79688 1.7734 1.7734v0.63672h-3.5391v1.707c0 0.95703 0.80859 1.7695 1.7695 1.7695 1.0703 0 1.9336 0.86719 1.9336 1.9336s-0.86719 1.9336-1.9336 1.9336c-3.1094 0-5.6406-2.5273-5.6406-5.6406v-1.707h-9.3906c-1.8516 0-3.3594 1.5039-3.3594 3.3516v7.4766h75.352v-7.4766z"/></svg>