<svg xmlns="http://www.w3.org/2000/svg" version="1.1" viewBox="-5.0 -10.0 110.0 135.0">
 <path d="m73.41 20h-46.82c-3.6289 0-6.5898 2.9297-6.5898 6.5586v46.871c0 3.6289 2.9609 6.5586 6.5898 6.5586h46.82c3.6289 0 6.5898-2.9297 6.5898-6.5586v-46.871c0-3.6289-2.9609-6.5586-6.5898-6.5586zm3.9492 53.441c0 2.1797-1.7695 3.8906-3.9492 3.8906l-46.82-0.003906c-2.1797 0-3.9492-1.7109-3.9492-3.8906v-46.879c0-2.1211 1.7695-3.9219 3.9492-3.9219h46.82c2.1797 0 3.9492 1.8008 3.9492 3.9219z"/>
 <path d="m47.762 40.898c-2.3281-2.3281-4.1406-4.9688-5.4609-7.7812-1.3086 2.8281-3.1211 5.4688-5.4414 7.8008-2.3281 2.3281-4.9688 4.1406-7.8008 5.4414 2.8203 1.3203 5.4609 3.1289 7.7812 5.4609 2.3281 2.3281 4.1406 4.9688 5.4609 7.7812 1.3203-2.8203 3.1289-5.4609 5.4609-7.7812 2.3281-2.3203 4.9414-4.1406 7.7617-5.4609-2.8203-1.3203-5.4297-3.1289-7.7617-5.4609z"/>
 <path d="m61.512 50.828c-0.87109 1.8711-2.0586 3.6211-3.6094 5.1719-1.5508 1.5508-3.2891 2.7383-5.1719 3.6094 1.8594 0.87891 3.6094 2.0703 5.1602 3.6094s2.7383 3.2891 3.6094 5.1602c0.87891-1.8594 2.0703-3.6094 3.6094-5.1602s3.2695-2.7383 5.1406-3.6094c-1.8594-0.87891-3.6016-2.0703-5.1406-3.6094s-2.7383-3.2891-3.6094-5.1602z"/>
 <path d="m65.789 31.621c-0.51172 1.1016-1.2188 2.1289-2.1211 3.0391-0.91016 0.91016-1.9414 1.6094-3.0391 2.1211 1.1016 0.51953 2.1289 1.2188 3.0312 2.1289 0.91016 0.91016 1.6094 1.9414 2.1289 3.0312 0.51953-1.1016 1.2188-2.1289 2.1289-3.0312 0.91016-0.89844 1.9297-1.6094 3.0195-2.1289-1.1016-0.51953-2.1211-1.2188-3.0195-2.1289-0.89844-0.91016-1.6094-1.9414-2.1289-3.0312z"/></svg>