<svg xmlns="http://www.w3.org/2000/svg" viewBox="0 0 32 40" x="0px" y="0px"><title>todolist, list</title><g data-name="Layer 2"><path d="M27,2H5A3.009,3.009,0,0,0,2,5V27a3.009,3.009,0,0,0,3,3H27a3.009,3.009,0,0,0,3-3V5A3.009,3.009,0,0,0,27,2ZM6.29,8.92a1.008,1.008,0,0,1,1.42,0l1.5,1.5L13,6.15a1,1,0,0,1,1.5,1.33L10,12.54a1.023,1.023,0,0,1-.72.34H9.25a1.017,1.017,0,0,1-.71-.3L6.29,10.33A1,1,0,0,1,6.29,8.92ZM25,26H7a1,1,0,0,1,0-2H25a1,1,0,0,1,0,2Zm0-4.5H7a1,1,0,0,1,0-2H25a1,1,0,0,1,0,2ZM25,17H7a1,1,0,0,1,0-2H25a1,1,0,0,1,0,2Zm0-5.44H16a1,1,0,0,1,0-2h9a1,1,0,0,1,0,2Z"/></g></svg>