<svg xmlns="http://www.w3.org/2000/svg" version="1.1" viewBox="-5.0 -5.0 110.0 110.0">
 <path d="m11 5.1445h24.086c2.7266 0 5.2031 1.1094 6.9922 2.9023 1.793 1.793 2.9023 4.2656 2.9023 6.9922v8.6211c0 2.7266-1.1094 5.2031-2.9023 6.9922-1.793 1.793-4.2656 2.9023-6.9922 2.9023h-24.086c-2.7266 0-5.2031-1.1094-6.9922-2.9023-1.793-1.793-2.9023-4.2656-2.9023-6.9922v-8.6211c0-2.7266 1.1094-5.2031 2.9023-6.9922 1.793-1.793 4.2656-2.9023 6.9922-2.9023zm78 89.711h-24.086c-2.7266 0-5.2031-1.1094-6.9922-2.9023-1.793-1.793-2.9023-4.2656-2.9023-6.9922v-8.6211c0-2.7266 1.1094-5.2031 2.9023-6.9922 1.793-1.793 4.2656-2.9023 6.9922-2.9023h24.086c2.7266 0 5.2031 1.1094 6.9922 2.9023 1.793 1.793 2.9023 4.2656 2.9023 6.9922v8.6211c0 2.7266-1.1094 5.2031-2.9023 6.9922-1.793 1.793-4.2656 2.9023-6.9922 2.9023zm9.8984-79.812v32.316c0 2.7266-1.1094 5.2031-2.9023 6.9922-1.793 1.793-4.2656 2.9023-6.9922 2.9023h-24.086c-2.7266 0-5.2031-1.1094-6.9922-2.9023-1.793-1.793-2.9023-4.2656-2.9023-6.9922v-32.316c0-2.7266 1.1094-5.2031 2.9023-6.9922 1.793-1.793 4.2656-2.9023 6.9922-2.9023h24.086c2.7266 0 5.2031 1.1094 6.9922 2.9023 1.793 1.793 2.9023 4.2656 2.9023 6.9922zm-53.914 37.598v32.316c0 2.7266-1.1094 5.2031-2.9023 6.9922-1.793 1.793-4.2656 2.9023-6.9922 2.9023h-24.086c-2.7266 0-5.2031-1.1094-6.9922-2.9023-1.793-1.793-2.9023-4.2656-2.9023-6.9922v-32.316c0-2.7266 1.1094-5.2031 2.9023-6.9922 1.793-1.793 4.2656-2.9023 6.9922-2.9023h24.086c2.7266 0 5.2031 1.1094 6.9922 2.9023 1.793 1.793 2.9023 4.2656 2.9023 6.9922z"/></svg>