<svg xmlns="http://www.w3.org/2000/svg" version="1.1" viewBox="-5.0 -10.0 110.0 135.0">
 <path d="m13.031 7.8477c-2.9062 0.1875-5.2188 2.5859-5.2188 5.5352v6.8008c0 0.93359 0.75781 1.6914 1.6914 1.6914h8.8008l-0.015626-8.2969c0-3-2.3008-5.4766-5.2617-5.7305z"/>
 <path d="m88.934 78.129h-52.074c-0.93359 0-1.6914 0.76172-1.6914 1.6953v6.793c0 2.1172-0.76172 4.0625-2.0234 5.5703h51.914c3.0703-0.003906 5.5703-2.5 5.5703-5.5742v-6.793c0-0.93359-0.75781-1.6914-1.6953-1.6914z"/>
 <path d="m36.859 75h41.672v-3.5781c-0.5 0.32812-1.0156 0.65625-1.5312 0.95312-2.1562 1.2656-4.6406 1.9219-7.2031 1.9219-2.5469 0-4.9844-0.65625-7.0781-1.8281-1.3594-0.78125-2.5938-1.7656-3.5938-2.9531-2.8125 1.3125-5.9219 2.5781-9.3594 3.7656-0.17188 0.0625-0.34375 0.09375-0.51562 0.09375-0.64062 0-1.25-0.40625-1.4688-1.0469-0.28125-0.82812 0.14062-1.7188 0.96875-2 3.1406-1.0938 6.0156-2.25 8.6094-3.4688-0.64062-1.2344-1.0625-2.5312-1.2969-3.8281h-22.984c-0.85938 0-1.5625-0.70312-1.5625-1.5625 0-0.875 0.70312-1.5625 1.5625-1.5625h22.797c0.20312-3.8438 1.9844-7.5469 5.2188-10.109 0.67188-0.53125 1.5312-0.82812 2.3906-0.82812 0.5 0 0.98438 0.09375 1.4219 0.26562l0.046875-0.14062c0.29688-1.125 1-2.0625 2-2.6562 1.6406-1 3.25-2.1094 4.7656-3.3438 0.625-0.51562 1.4375-0.79688 2.2656-0.79688 0.25 0 0.51562 0.03125 0.76562 0.078125l0.015625-0.15625c0.015625-0.14062 0.046875-0.28125 0.078125-0.40625 0.35938-1.3438 0.96875-2.5312 1.8281-3.5469l0.3125-0.35938-4.5625-2.7344c-0.875-0.53125-1.375-1.5-1.2969-2.5156s0.71875-1.8906 1.6562-2.2812l5.6094-2.2656c0.078125-0.03125 0.14062-0.10938 0.14062-0.21875v-13.422c0-1.7812-0.6875-3.4531-1.9531-4.7031-1.25-1.2656-2.9219-1.9531-4.7031-1.9531l-52.578 0.015625c1.3281 1.5469 2.125 3.5625 2.125 5.75l0.09375 52.375c0 0.29688 0.1875 0.5625 0.45312 0.67188l5.0781 2.0312c1.0625 0.42188 1.7656 1.3906 1.8438 2.5156 0.09375 1.125-0.45312 2.1875-1.4375 2.7656l-5.5625 3.2969c-0.21875 0.14062-0.34375 0.375-0.34375 0.625l0.015625 8.5625c0 3 2.2969 5.4688 5.2656 5.7344 2.9062-0.1875 5.2188-2.5938 5.2188-5.5312v-6.7969c0-2.6562 2.1562-4.8281 4.8125-4.8281zm-3.7812-56.016h33.141c0.875 0 1.5625 0.6875 1.5625 1.5625 0 0.85938-0.6875 1.5625-1.5625 1.5625h-33.141c-0.85938 0-1.5625-0.70312-1.5625-1.5625 0-0.875 0.70312-1.5625 1.5625-1.5625zm0 10.219h24.25c0.85938 0 1.5625 0.70312 1.5625 1.5625 0 0.875-0.70312 1.5625-1.5625 1.5625h-24.25c-0.85938 0-1.5625-0.6875-1.5625-1.5625 0-0.85938 0.70312-1.5625 1.5625-1.5625zm0 10.234h33.141c0.875 0 1.5625 0.70312 1.5625 1.5625s-0.6875 1.5625-1.5625 1.5625h-33.141c-0.85938 0-1.5625-0.70312-1.5625-1.5625s0.70312-1.5625 1.5625-1.5625zm0 10.234h24.25c0.85938 0 1.5625 0.70312 1.5625 1.5625s-0.70312 1.5625-1.5625 1.5625h-24.25c-0.85938 0-1.5625-0.70312-1.5625-1.5625s0.70312-1.5625 1.5625-1.5625z"/>
 <path d="m88.906 24.125c-0.5625-0.67188-1.6719-0.40625-1.875 0.45312-2.3125 9.4375-3.6719 10.625-7.9688 15.719-0.57812 0.67188-0.96875 1.4688-1.1875 2.3125l-0.6875 5.3281c-0.0625 0.54688-0.78125 0.70312-1.0781 0.25l-1.75-2.5625c-0.15625-0.23438-0.46875-0.26562-0.6875-0.09375-1.875 1.5156-3.6562 2.7031-5.1094 3.5781-0.29688 0.1875-0.5 0.45312-0.59375 0.79688l-1.3438 5.0625c-0.15625 0.59375-0.96875 0.67188-1.3438-0.14062l-1.0781-2.2812c-0.20312-0.4375-0.78125-0.60938-1.1719-0.29688-3.9062 3.0938-5.25 8.625-2.8594 13.25 16.312-8.2656 21.141-17.781 21.203-17.891 0.375-0.78125 1.3125-1.0938 2.0781-0.71875 0.78125 0.375 1.1094 1.2969 0.73438 2.0781-0.25 0.5-5.2188 10.438-22.156 19.109 3.4219 3.375 9.0781 4.1094 13.391 1.5938 2.8125-1.6406 5.1875-3.5469 7.1719-5.4844 0.39062-0.39062 0.32812-1.0625-0.14062-1.375l-2.2656-1.5156c-0.375-0.26562-0.25-0.84375 0.1875-0.92188l5.8438-1.0781c0.4375-0.078125 0.82812-0.32812 1.0781-0.6875 2.8906-4.125 4.0469-7.4219 4.0469-7.4219 0.26562-0.67188 0.51562-1.3438 0.73438-2l-4.9531-0.85938 5.5781-3.5625c0.35938-0.21875 0.60938-0.60938 0.67188-1.0312 1.5938-10.672-2.25-16.969-4.4688-19.609z"/></svg>