<svg xmlns="http://www.w3.org/2000/svg" xmlns:xlink="http://www.w3.org/1999/xlink" xmlns:serif="http://www.serif.com/" viewBox="0 0 48 48" version="1.1" xml:space="preserve" style="" x="0px" y="0px" fill-rule="evenodd" clip-rule="evenodd" stroke-linejoin="round" stroke-miterlimit="2"><g transform="matrix(1,0,0,1,-144,-504)"><g><path d="M166.296,540.428C160.033,546.607 153.45,549.895 153.45,549.895C152.994,550.122 152.44,549.97 152.163,549.542C151.887,549.114 151.977,548.547 152.372,548.225C154.876,546.184 161.228,537.498 163.678,531.09C164.178,529.783 164.514,528.577 164.598,527.552C164.664,526.754 164.6,526.086 164.229,525.637C163.864,525.196 163.372,525.105 162.826,525.206C162.309,525.301 161.755,525.544 161.181,525.875C157.321,528.096 152.797,534.104 152.797,534.104C152.498,534.499 151.953,534.615 151.518,534.376C151.083,534.137 150.89,533.615 151.063,533.15C155.257,521.921 160.35,517.704 164.674,516.594C169.247,515.42 173.125,517.635 174.788,519.292C176.326,520.824 177.501,521.313 178.477,521.064C179.355,520.84 179.976,520.063 180.452,519.264C181.287,517.86 181.638,516.283 181.638,516.283C181.742,515.815 182.163,515.486 182.643,515.5C183.122,515.514 183.524,515.867 183.601,516.34C184.705,523.159 183.277,526.239 181.449,527.532C180.24,528.388 178.785,528.548 177.466,528.395C176.566,528.291 175.739,528.044 175.133,527.82C174.378,529.617 173.469,531.312 172.455,532.902C174.266,533.479 175.772,534.334 176.832,535.66C178.737,538.045 179.268,542.096 177.045,549.295C176.911,549.728 176.503,550.017 176.049,549.999C175.596,549.981 175.212,549.66 175.114,549.218C174.598,546.906 174.089,545.071 173.445,543.662C172.877,542.417 172.218,541.529 171.312,540.985C170.106,540.26 168.512,540.145 166.296,540.428ZM171.286,534.641C170.358,535.937 169.368,537.156 168.347,538.296C169.986,538.311 171.281,538.633 172.342,539.27C174.018,540.277 175.151,542.132 176.09,545.074C176.929,541.045 176.566,538.531 175.269,536.908C174.337,535.741 172.94,535.088 171.286,534.641ZM173,506C175.76,506 178,508.24 178,511C178,513.76 175.76,516 173,516C170.24,516 168,513.76 168,511C168,508.24 170.24,506 173,506Z"/></g></g></svg>