<svg xmlns="http://www.w3.org/2000/svg" xmlns:xlink="http://www.w3.org/1999/xlink" version="1.1" x="0px" y="0px" viewBox="0 0 90 90" enable-background="new 0 0 90 90" xml:space="preserve"><g><path fill="#000000" d="M46.415,75.58c-15.894,0-28.825-12.932-28.825-28.826c0-15.894,12.931-28.825,28.825-28.825   c15.893,0,28.823,12.931,28.823,28.825C75.238,62.648,62.308,75.58,46.415,75.58z M46.415,21.518   c-13.915,0-25.236,11.321-25.236,25.236c0,13.916,11.321,25.236,25.236,25.236c13.914,0,25.233-11.32,25.233-25.236   C71.648,32.839,60.329,21.518,46.415,21.518z"/><path fill="#7A8F95" d="M49.891,46.755l7.714-8.883c0.746-0.858,0.654-2.158-0.204-2.904c-0.857-0.744-2.158-0.653-2.903,0.205l-7.332,8.443   l-7.332-8.443c-0.745-0.858-2.045-0.951-2.904-0.205c-0.858,0.746-0.95,2.045-0.205,2.904l7.714,8.883l-7.711,8.88   c-0.745,0.858-0.654,2.158,0.205,2.903c0.39,0.339,0.87,0.505,1.349,0.505c0.576,0,1.148-0.24,1.555-0.709l7.329-8.439l7.329,8.439   c0.406,0.469,0.979,0.709,1.555,0.709c0.479,0,0.959-0.166,1.349-0.505c0.858-0.745,0.95-2.045,0.204-2.903L49.891,46.755z"/></g></svg>