<svg xmlns="http://www.w3.org/2000/svg" viewBox="0 0 24 30" fill="none" x="0px" y="0px"><path d="M7 2C7 1.44772 6.55228 1 6 1C5.44772 1 5 1.44772 5 2V3H1C0.447715 3 0 3.44772 0 4C0 4.55228 0.447715 5 1 5H5V6C5 6.55228 5.44772 7 6 7C6.55228 7 7 6.55228 7 6V2Z" fill="black"/><path d="M0 20C0 19.4477 0.447715 19 1 19H9V18C9 17.4477 9.44771 17 10 17C10.5523 17 11 17.4477 11 18V22C11 22.5523 10.5523 23 10 23C9.44771 23 9 22.5523 9 22V21H1C0.447715 21 0 20.5523 0 20Z" fill="black"/><path d="M1 11C0.447715 11 0 11.4477 0 12C0 12.5523 0.447715 13 1 13H17V14C17 14.5523 17.4477 15 18 15C18.5523 15 19 14.5523 19 14V10C19 9.44771 18.5523 9 18 9C17.4477 9 17 9.44771 17 10V11H1Z" fill="black"/><path d="M9 3H23C23.5523 3 24 3.44772 24 4C24 4.55228 23.5523 5 23 5H9V3Z" fill="black"/><path d="M24 20C24 19.4477 23.5523 19 23 19H13V21H23C23.5523 21 24 20.5523 24 20Z" fill="black"/><path d="M21 11H23C23.5523 11 24 11.4477 24 12C24 12.5523 23.5523 13 23 13H21V11Z" fill="black"/></svg>