<svg xmlns="http://www.w3.org/2000/svg" version="1.1" viewBox="-5.0 -10.0 110.0 135.0">
 <path d="m75.113 19.211c0.10156-1.707-0.19141-3.418-0.84766-4.9922-2-4.7578-6.6406-7.3516-11.617-9.8125-2.8828-1.4141-6.8281-3.3516-10.82-2.6875-1.4375 0.25-4.125 1.3516-6.2031 2.9297 5.5898 0.70312 11.43 2.5547 16.938 5.4023 4.8516 2.5117 9.168 5.6641 12.551 9.1602z"/>
 <path d="m26.188 27.289c0.11328-0.62891 0.23438-1.2031 0.37891-1.7578 0.054688-0.27344 0.125-0.58594 0.21875-0.89062 0.12891-0.47656 0.29688-1.0078 0.50781-1.6328 0.47266-1.3789 1.1055-2.6953 1.8945-3.9219l0.67188-1.0234h0.09375-0.003906c2.0508-2.4258 5.0742-3.8203 8.2539-3.8047 0.28906 0 0.56641 0.015626 0.85156 0.039063 6.2031 0.49609 12.68 2.4375 18.77 5.5898 1.3008 0.66406 2.5195 1.3672 3.6328 2.0586 2.1406 1.3164 4.1758 2.793 6.0898 4.4219 1.6914 1.4414 3.2617 3.0234 4.6875 4.7266 2.0273 2.4766 2.8672 5.7148 2.293 8.8594-0.023438 0.16406-0.0625 0.33984-0.10156 0.52344l-0.015625 0.085938c-0.17969 0.875-0.39062 1.6875-0.62891 2.4883l0.003906-0.003906c-0.023437 0.085937-0.050781 0.17188-0.082031 0.25-0.19531 0.64062-0.37891 1.1484-0.57812 1.6094-0.14062 0.37109-0.29688 0.73438-0.45312 1.082 2.7227-1.1133 4.8359-2.7852 6.1953-4.918 3.375-5.3281 1.625-12.633-4.6875-19.547-3.3047-3.6172-7.6836-6.875-12.656-9.4531-5.6172-2.9062-11.59-4.7344-17.258-5.2734-8.918-0.86719-15.82 1.4453-18.965 6.375-2.5312 3.9883-2.1992 9.0938 0.85156 14.367 0.007812-0.085937 0.019531-0.16797 0.035156-0.25z"/>
 <path d="m47.773 40.961c0 0.078124-0.015626 0.15625-0.015626 0.23828 0 1.4688 0.83594 2.5703 1.9531 2.5703 1.0312 0 1.8164-0.96094 1.9219-2.2734h0.003907c0.41016-0.12109 0.71484-0.46484 0.78906-0.88281 0.074219-0.42188-0.097656-0.85156-0.44141-1.1055-1.3438-1.0469-3.1406-1.3164-4.7344-0.71484-0.50391 0.22266-0.77344 0.77344-0.64062 1.3086 0.13281 0.53125 0.625 0.89453 1.1719 0.85938z"/>
 <path d="m40.348 39.203c0.44922-0.14062 0.76953-0.54297 0.79688-1.0156 0.027344-0.46875-0.24219-0.91016-0.67578-1.1016-1.5898-0.60156-3.3828-0.33203-4.7266 0.71484-0.39063 0.29297-0.55078 0.80078-0.39844 1.2617 0.15234 0.46484 0.58594 0.77734 1.0703 0.78125 0.03125 0 0.054688-0.011719 0.085938-0.015625 0.12109 1.293 0.90234 2.2344 1.9219 2.2344 1.1094 0 1.9531-1.1055 1.9531-2.5742-0.007812-0.097656-0.023438-0.19141-0.027344-0.28516z"/>
 <path d="m40.664 45.242c-0.054687 0.99219 0.26563 1.7773 0.89844 2.2031h-0.003906c0.32812 0.22266 0.71484 0.33984 1.1133 0.33203 0.50781-0.019532 1.0117-0.14453 1.4688-0.375 0.56641-0.26562 0.80859-0.9375 0.54688-1.5039-0.26172-0.56641-0.92969-0.81641-1.5-0.55469v-0.003906c-0.085938 0.042968-0.17578 0.082031-0.26953 0.10938v-0.089844c0.015625-0.61328-0.46094-1.1289-1.0742-1.1602-0.61328-0.035157-1.1445 0.42969-1.1914 1.043z"/>
 <path d="m43.164 52.281c0.28906 0.058594 0.58594 0.085938 0.88281 0.085938 1.1016 0 2.25-0.39063 3.4141-1.1719h0.003906c0.5-0.35547 0.625-1.0469 0.28125-1.5586-0.34375-0.50781-1.0312-0.65234-1.5469-0.32422-2.5078 1.6875-3.7656 0.19531-3.9922-0.13281v0.003906c-0.35156-0.51953-1.0586-0.65625-1.5781-0.30469-0.51953 0.34766-0.65625 1.0547-0.30469 1.5742 0.68359 0.94141 1.6992 1.5938 2.8398 1.8281z"/>
 <path d="m77.734 69.055c-2.2266-1.5508-5.0078-2.8438-7.5195-3.9922-0.28516 0.58984-0.64453 1.1406-1.0664 1.6406 1.4141 3.9062 1.4766 7.7031 0.17187 11.328-2.25 6.25-8.0078 9.8438-9.4336 10.469h0.003906c-0.53125 0.20703-1.0781 0.36719-1.6367 0.47656-0.16406 0.023438-0.33203 0.039063-0.49609 0.039063-3.8125 0-7.6172-9.1797-8.7109-13.867-0.066406-0.30469-0.10547-0.62109-0.11328-0.9375-0.042969-1.8086 0.40625-3.5977 1.293-5.1719-1.9453 0.18359-3.9062-0.097656-5.7188-0.82812-3.2109-1.2539-5.3125-3.25-6.4141-6.0781 1.4375-0.71094 3.2734-1.625 3.4414-1.7109v0.003906c0.09375-0.046875 0.18359-0.10547 0.25781-0.17578 0.23047-0.20703 0.36719-0.5 0.375-0.80859l0.027343-0.88281v-0.003906c1.2539 0.46094 2.5703 0.71484 3.9062 0.74609h0.1875c2.4375-0.027343 4.8203-0.75391 6.8594-2.0938 0.035156-0.023437 0.070312-0.046875 0.10937-0.070312v-0.003907c0.57422-0.36719 1.1289-0.77734 1.6484-1.2227 0.47656-0.40625 0.92578-0.84375 1.3516-1.3047 0 0.0625 0.16797 1.125 0.23438 1.4375-1.5898 2.6406-2.4141 4.7891 0.19531 9.1602-1.1875 0.93359-2.2773 1.9922-3.25 3.1484l-0.023438 0.023438c-0.050781 0.050781-0.097656 0.10547-0.13672 0.16797l-0.21094 0.27344c-1.3164 1.7695-1.9531 3.5859-1.875 5.3555v-0.003906c0 0.16016 0.015625 0.31641 0.050782 0.46875 1.4609 6.25 5.125 12.121 6.5 12.121 0.058593 0 0.11719-0.003906 0.17187-0.015624 0.35938-0.078126 0.71094-0.18359 1.0508-0.30859 1.1562-0.50781 6.25-3.7109 8.2031-9.1641 1.2617-3.5156 1.0195-7.2383-0.71875-11.105 0.3125-0.24219 0.60156-0.51562 0.86328-0.8125 1.8164-2.0625 1.793-4.6758-0.070312-7.7617 0.76562-0.82422 1.7734-2.0586 2.1797-3.2148 0.054687-0.14453 0.097656-0.28906 0.13281-0.43359 0.085937-0.34766 0.14844-0.69531 0.19531-1.0508 0.14453-1.2734-0.03125-2.293-0.17969-3.1953-0.125-0.60547-0.19141-1.2227-0.20703-1.8438v-0.37891c0.19531-0.31641 0.37109-0.64062 0.53906-0.97656 0.39062-0.75 0.73438-1.5625 1.1094-2.4453 0.48438-1.1172 0.97656-3.1016 1.1562-3.9414 0.039062-0.17969 0.078125-0.35547 0.10547-0.53906v0.003907c0.45703-2.4922-0.20313-5.0586-1.8047-7.0195-1.3438-1.6055-2.8203-3.0938-4.4141-4.4492-1.8281-1.5625-3.7734-2.9766-5.8203-4.2344-1.082-0.67969-2.25-1.3359-3.4648-1.9688-5.8125-3.0273-11.992-4.8711-17.863-5.3477-0.23438-0.015626-0.46875-0.03125-0.70312-0.03125-2.8438-0.015626-5.5 1.3984-7.082 3.7578l-0.03125 0.054688h0.003906c-0.68359 1.0664-1.2344 2.207-1.6445 3.4023-0.17969 0.53125-0.33984 1.0312-0.47656 1.5312-0.074218 0.26562-0.14062 0.54688-0.19531 0.78125-0.12891 0.5-0.24219 1.0312-0.35156 1.6328-0.14062 0.83203-0.25 1.5898-0.30859 2.3125-0.25 2.625-0.12891 5.1875 0.34766 7.2266l0.039062 0.16406c0.92969 3.957 2.2344 6.875 3.8672 8.6719 0.13672 0.15625 1.0625 1.1484 1.0625 1.1484v0.003907c0.17188 0.84766 0.39062 1.6914 0.65234 2.5195 0 0.023437 0.015624 0.050781 0.023437 0.078125 1.125 3.4219 2.9531 5.9336 5.4102 7.457 0.14062 0.089844 0.28906 0.17578 0.4375 0.26172l-0.035156 1.1719c-0.91406 0.45312-2.6328 1.3086-3.6797 1.8203-0.019532 0-0.042969 0.011719-0.0625 0.023438-0.15234 0.085937-0.88281 0.37109-1.5898 0.65234-2.0039 0.78125-5.0312 1.9883-6.6797 2.875-2.7344 1.4844-4.8281 2.7188-6.375 3.7734-5.4297 3.6914-5.6289 7.0938-5.8594 11.047-0.03125 0.5625-0.070312 1.1406-0.11328 1.7578-0.12891 1.3984-0.19531 2.0117-0.24219 3.3203l-0.007812-0.003906c-0.066406 2.75 1.4648 5.293 3.9258 6.5195 3.5625 1.7578 9.375 4.1289 16.672 5.9375 5.6406 1.3984 13.398 1.9141 13.469 1.9219 1.1641 0.050781 2.3242 0.078125 3.4766 0.082031l0.003906 0.003907c9.5586 0.027343 19.004-2.0273 27.688-6.0234 2.5078-1.125 4.125-3.6094 4.1484-6.3555 0.054688-8.6289-2.2188-13.676-6.9609-16.996zm-41.461-19.934c0-0.019532-0.011719-0.039063-0.019532-0.0625-0.20703-0.64062-0.39062-1.332-0.55469-2.0938 0.027343-0.12891-0.25391-2.9609-0.26953-3.0781-0.50781-3.7109-0.26563-6.4023 0.070312-8.1211 1.3203-0.78125 2.8945-1.0039 4.375-0.625 0.29297 0.12109 0.61719 0.11328 0.90234-0.019531 0.28516-0.12891 0.50391-0.375 0.60156-0.67188 0.10156-0.29688 0.074219-0.62109-0.078125-0.89844-0.14844-0.27344-0.40234-0.47656-0.70703-0.55859-1.3047-0.36328-2.6758-0.39063-3.9922-0.078126 0.60156-1.207 1.3672-2.3242 2.2812-3.3203 0.12109-0.12891 0.23438-0.25 0.37109-0.37891 2.1719-2.1328 4.4609-2.7461 5.4688-2.8672 0.39062 0.77344 0.76562 1.5156 1.1172 2.2383 0.92578 1.8672 1.8203 3.6641 2.9297 5.3711-0.66016 0.007813-1.3164 0.10547-1.9531 0.28906-0.54297 0.23047-0.82031 0.83984-0.63672 1.3984 0.1875 0.5625 0.76953 0.88672 1.3438 0.75 1.043-0.26172 2.1406-0.23047 3.1719 0.089844 0.88281 1.0117 1.8555 1.9414 2.9102 2.7734 0.48438 0.375 1.0312 0.77344 1.6641 1.2031 0.41406 0.27734 0.95703 0.25391 1.3438-0.058594 0.38672-0.30859 0.53125-0.83203 0.35156-1.2969-0.48828-1.2852-0.66406-2.668-0.50781-4.0312 1.2812 0.78125 2.2969 2.3242 2.7891 4.2578v-0.003906c-0.21875 0.17188-0.41406 0.36719-0.58594 0.58594-0.48828 0.64844-0.70312 1.3789-0.88672 2.0234-0.082032 0.28906-0.046876 0.60156 0.10156 0.86719 0.14453 0.26172 0.39062 0.45703 0.67969 0.53906 0.10547 0.03125 0.21094 0.046875 0.31641 0.042969 0.50391 0 0.94531-0.32812 1.0898-0.80859 0.14453-0.5 0.28125-0.97656 0.52344-1.2969 0.097656-0.13672 0.23438-0.24609 0.39062-0.30469h0.019531c0.023438-0.003906 0.046875-0.003906 0.066407 0 0.19531 0.023438 0.48828 0.50781 0.57422 1.1484 0.3125 2.3047-0.86328 4.7422-2.8203 5.9062-0.67969 0.39062-0.96094-0.03125-0.97656-0.03125-0.10938-0.28516-0.33203-0.51562-0.61328-0.63672-0.28125-0.12109-0.59766-0.12109-0.87891-0.003906-0.28516 0.11719-0.50781 0.34375-0.62109 0.62891-0.11328 0.28516-0.10547 0.60156 0.015625 0.88281v-0.003906c0.18359 0.4375 0.49609 0.80469 0.89844 1.0469-0.023437 0.0625-0.054687 0.13281-0.070312 0.19531-0.054688 0.17578-0.125 0.375-0.21875 0.58594l-0.03125 0.0625c-0.50781 1.0859-1.5508 2.3672-2.7969 3.4297-0.44922 0.39062-0.92969 0.74219-1.4336 1.0625l-0.078125 0.054688c-1.8281 1.1719-3.8125 1.7695-5.7734 1.7344h-0.003907c-1.5781-0.039062-3.1289-0.44531-4.5273-1.1875l-0.19531-0.09375c-0.22656-0.125-0.46094-0.25781-0.70312-0.40625-1.9805-1.25-3.4766-3.3438-4.4336-6.2305z"/></svg>