<svg xmlns:dc="http://purl.org/dc/elements/1.1/" xmlns:cc="http://creativecommons.org/ns#" xmlns:rdf="http://www.w3.org/1999/02/22-rdf-syntax-ns#" xmlns:svg="http://www.w3.org/2000/svg" xmlns="http://www.w3.org/2000/svg" xmlns:sodipodi="http://sodipodi.sourceforge.net/DTD/sodipodi-0.dtd" xmlns:inkscape="http://www.inkscape.org/namespaces/inkscape" version="1.1" viewBox="0 0 16.933333 16.933333" x="0px" y="0px"><g transform="translate(0,-280.06665)"><path style="" d="m 3.1750001,281.12497 c 1.1726332,0 2.1166665,0.94403 2.1166665,2.11667 0,1.17263 -0.9440333,2.11666 -2.1166665,2.11666 -1.1726333,0 -2.1166666,-0.94403 -2.1166666,-2.11666 0,-1.17264 0.9440333,-2.11667 2.1166666,-2.11667 z" fill="#000000" stroke="none"/><path style="" d="m 8.4666669,281.12497 c 1.1726333,0 2.1166661,0.94403 2.1166661,2.11667 0,1.17263 -0.9440328,2.11666 -2.1166661,2.11666 -1.1726332,0 -2.1166665,-0.94403 -2.1166665,-2.11666 0,-1.17264 0.9440333,-2.11667 2.1166665,-2.11667 z" fill="#000000" stroke="none"/><path style="" d="m 13.758333,281.12497 c 1.172633,0 2.116667,0.94403 2.116667,2.11667 0,1.17263 -0.944034,2.11666 -2.116667,2.11666 -1.172633,0 -2.116667,-0.94403 -2.116667,-2.11666 0,-1.17264 0.944034,-2.11667 2.116667,-2.11667 z" fill="#000000" stroke="none"/><path style="" d="m 3.1749936,286.41666 h 1.29e-5 c 1.1726297,0 2.1166601,0.94403 2.1166601,2.11666 v 10e-6 c 0,1.17263 -0.9440304,2.11666 -2.1166601,2.11666 h -1.29e-5 c -1.1726297,0 -2.1166601,-0.94403 -2.1166601,-2.11666 v -10e-6 c 0,-1.17263 0.9440304,-2.11666 2.1166601,-2.11666 z" fill="#000000" stroke="none"/><path style="" d="m 8.4666669,286.41666 c 1.1726333,0 2.1166661,0.94403 2.1166661,2.11666 0,1.17264 -0.9440328,2.11667 -2.1166661,2.11667 -1.1726332,0 -2.1166665,-0.94403 -2.1166665,-2.11667 0,-1.17263 0.9440333,-2.11666 2.1166665,-2.11666 z" fill="#000000" stroke="none"/><path style="" d="m 13.758333,286.41666 c 1.172633,0 2.116667,0.94403 2.116667,2.11666 0,1.17264 -0.944034,2.11667 -2.116667,2.11667 -1.172633,0 -2.116667,-0.94403 -2.116667,-2.11667 0,-1.17263 0.944034,-2.11666 2.116667,-2.11666 z" fill="#000000" stroke="none"/><path style="" d="m 3.1750001,291.70831 c 1.1726332,0 2.1166665,0.94404 2.1166665,2.11667 0,1.17263 -0.9440333,2.11667 -2.1166665,2.11667 -1.1726333,0 -2.1166666,-0.94404 -2.1166666,-2.11667 0,-1.17263 0.9440333,-2.11667 2.1166666,-2.11667 z" fill="#000000" stroke="none"/><path style="" d="m 8.4666669,291.70831 c 1.1726333,0 2.1166661,0.94404 2.1166661,2.11667 0,1.17263 -0.9440328,2.11667 -2.1166661,2.11667 -1.1726332,0 -2.1166665,-0.94404 -2.1166665,-2.11667 0,-1.17263 0.9440333,-2.11667 2.1166665,-2.11667 z" fill="#000000" stroke="none"/><path style="" d="m 13.758333,291.70831 c 1.172633,0 2.116667,0.94404 2.116667,2.11667 0,1.17263 -0.944034,2.11667 -2.116667,2.11667 -1.172633,0 -2.116667,-0.94404 -2.116667,-2.11667 0,-1.17263 0.944034,-2.11667 2.116667,-2.11667 z" fill="#000000" stroke="none"/></g></svg>