<svg xmlns="http://www.w3.org/2000/svg" version="1.1" viewBox="0 0 110.0 105.0">
 <path d="m57.93 44.801c-4.0391 1.8711-7.7891 4.5-11.16 7.8281-3.3281 3.3281-5.9102 7.1211-7.7891 11.16-1.9219-4.0391-4.5-7.8281-7.8281-11.16-3.3711-3.3281-7.1602-5.9492-11.16-7.8281 4.0391-1.8711 7.8281-4.4609 11.16-7.8281 3.3281-3.3281 5.9492-7.1211 7.8281-11.16 1.8711 4.0391 4.4609 7.8281 7.7891 11.16 3.3711 3.3281 7.1211 5.9102 11.16 7.8281z"/>
 <path d="m79.039 63.781c-2.6602 1.25-5.1602 2.9609-7.3711 5.1602-2.2109 2.1992-3.9102 4.75-5.1602 7.4102-1.25-2.6602-3-5.1992-5.1992-7.4102-2.1992-2.2109-4.7109-3.9102-7.3711-5.1602 2.6602-1.25 5.1992-2.9609 7.4102-5.1602 2.2109-2.1992 3.9102-4.75 5.1602-7.4102 1.25 2.6602 2.9609 5.1602 5.1602 7.3711 2.1992 2.2109 4.7109 3.9609 7.3711 5.1992z"/>
 <path d="m80 31.051c-1.5391 0.75-3 1.75-4.3281 3.0391-1.2891 1.2891-2.2891 2.7891-3.0391 4.3711-0.75-1.5781-1.75-3.0781-3.0391-4.3711-1.2891-1.2891-2.7891-2.2891-4.3711-3.0391 1.5781-0.75 3.0781-1.75 4.3711-3.0391 1.2891-1.2891 2.3281-2.7891 3.0391-4.3711 0.75 1.5781 1.75 3.0391 3.0391 4.3711 1.3281 1.2891 2.7891 2.2891 4.3281 3.0391z"/></svg>