<svg xmlns:inkscape="http://www.inkscape.org/namespaces/inkscape" xmlns:sodipodi="http://sodipodi.sourceforge.net/DTD/sodipodi-0.dtd" xmlns="http://www.w3.org/2000/svg" xmlns:svg="http://www.w3.org/2000/svg" viewBox="0 0 8.4666595 8.4666595" version="1.1" xml:space="preserve" x="0px" y="0px"><g transform="translate(-71.70207,-127.52917)"><path style="" d="M 75.390734 128.58802 C 75.182288 128.58802 75.009878 128.76043 75.009878 128.96888 L 75.009878 128.99988 C 75.009878 129.20832 75.182288 129.38074 75.390734 129.38074 L 75.539045 129.38074 L 75.539045 129.68408 C 74.55991 129.86993 73.8192 130.72932 73.819253 131.7625 C 73.819193 132.93125 74.766657 133.87893 75.935403 133.87917 C 77.104371 133.87924 78.05213 132.93147 78.05207 131.7625 C 78.052095 131.27698 77.888248 130.82978 77.613337 130.47266 L 77.732193 130.35329 A 0.13230472 0.13230472 0 0 0 77.732193 130.16622 L 77.533239 129.96468 A 0.13230472 0.13230472 0 0 0 77.345653 129.96468 L 77.225764 130.08509 C 76.968384 129.88682 76.663971 129.74652 76.332278 129.68356 L 76.332278 129.38074 L 76.48059 129.38074 C 76.689034 129.38074 76.861445 129.20832 76.861445 128.99988 L 76.861445 128.96888 C 76.861445 128.76043 76.689034 128.58802 76.48059 128.58802 L 75.390734 128.58802 z M 75.935403 130.50573 A 0.1984375 0.1984375 0 0 1 76.134874 130.7052 L 76.134874 131.67982 L 76.824238 132.37125 A 0.1984375 0.1984375 0 0 1 76.824238 132.6503 A 0.1984375 0.1984375 0 0 1 76.543118 132.6503 L 75.794843 131.90255 A 0.19845734 0.19845734 0 0 1 75.736449 131.76147 L 75.736449 130.7052 A 0.1984375 0.1984375 0 0 1 75.935403 130.50573 z " fill="#000000" stroke="none"/><path style="color:#000000;" d="m 74.462912,128.93302 c -0.0819,0.0399 -0.15795,0.0901 -0.2359,0.1369 -0.0627,0.039 -0.0814,0.12186 -0.0413,0.18397 0.0392,0.0625 0.122,0.0809 0.18397,0.0408 0.0686,-0.0449 0.0818,-0.0526 0.2207,-0.1287 0.0643,-0.035 0.0879,-0.11563 0.0527,-0.17983 -0.0353,-0.0645 -0.11658,-0.0873 -0.18017,-0.0531 z m 2.76421,0.0548 c -0.0343,0.065 -0.009,0.1456 0.0563,0.17932 0.96046,0.50219 1.5627,1.49616 1.5627,2.5802 0,1.608 -1.3013,2.90818 -2.90835,2.91042 -0.0508,-0.001 -0.10154,-0.003 -0.15231,-0.004 -0.0727,-0.005 -0.13559,0.0503 -0.14056,0.12299 -0.005,0.072 0.049,0.13452 0.12092,0.14056 0,0 0.0833,0.006 0.16795,0.006 1.75199,0 3.17604,-1.42371 3.17604,-3.17604 0,-1.182 -0.65596,-2.26669 -1.70326,-2.81429 -0.064,-0.0348 -0.14535,-0.0104 -0.17943,0.0548 z m -3.43752,0.41752 c -0.0716,0.0596 -0.13224,0.13038 -0.1961,0.1976 -0.0479,0.0543 -0.0433,0.13691 0.0103,0.18552 0.0543,0.0479 0.13691,0.0433 0.18552,-0.0103 0.0626,-0.0626 0.11483,-0.12039 0.1778,-0.1778 0.0534,-0.0488 0.0578,-0.13139 0.01,-0.18551 -0.0515,-0.0577 -0.13634,-0.0563 -0.18752,-0.01 z m -0.41495,0.57208 c -0.0468,-0.002 -0.0911,0.0215 -0.11628,0.061 -0.0682,0.10753 -0.08,0.12866 -0.1374,0.238 -0.0338,0.0637 -0.0104,0.1428 0.0527,0.17777 0.0641,0.0349 0.14431,0.0113 0.17932,-0.0527 0.036,-0.0777 0.0853,-0.14766 0.1292,-0.2206 0.0394,-0.0624 0.0201,-0.14496 -0.0429,-0.18345 -0.0196,-0.0123 -0.042,-0.0192 -0.0651,-0.0202 z m -0.46611,0.81078 c -0.0311,0.0861 -0.0496,0.17538 -0.0723,0.2637 -0.0161,0.0712 0.0286,0.14196 0.0997,0.15813 0.0712,0.0161 0.14196,-0.0286 0.15813,-0.0997 0.0198,-0.0826 0.044,-0.1641 0.0666,-0.246 0.0205,-0.0694 -0.0299,-0.14599 -0.0843,-0.16319 -0.0656,-0.0207 -0.14493,0.0126 -0.16782,0.0871 z m -0.14471,0.81082 c -0.007,0.0917 -0.002,0.18375 -0.002,0.27558 0.002,0.0737 0.0633,0.13181 0.13695,0.12919 0.0735,-0.002 0.13128,-0.0635 0.12867,-0.13694 -0.008,-0.0846 -8.7e-4,-0.1692 0,-0.25373 0.004,-0.0727 -0.0518,-0.13484 -0.12466,-0.139 -0.0728,-0.004 -0.13506,0.0521 -0.13896,0.1249 z m 0.0687,0.82631 c 0.017,0.089 0.0448,0.17429 0.0682,0.26173 0.0196,0.0709 0.0931,0.11216 0.16382,0.092 0.0708,-0.0196 0.11215,-0.0931 0.092,-0.16382 -0.028,-0.0819 -0.0448,-0.16661 -0.0666,-0.25011 -0.0162,-0.0712 -0.0869,-0.11581 -0.15856,-0.0997 -0.0717,0.0161 -0.11629,0.0882 -0.0989,0.15991 z m 0.33587,0.59532 c -0.0659,0.0335 -0.0915,0.11454 -0.0568,0.17984 0.0396,0.0763 0.0829,0.15261 0.1367,0.24093 0.0397,0.0617 0.12199,0.0793 0.18345,0.0393 0.0615,-0.0389 0.0799,-0.12022 0.0413,-0.1819 -0.0452,-0.0673 -0.0843,-0.13697 -0.1251,-0.21859 -0.0213,-0.043 -0.0642,-0.0711 -0.11214,-0.0734 -0.0299,0 -0.0488,0.003 -0.0674,0.0138 z m 0.52142,0.63664 c -0.0351,-0.002 -0.0694,0.0101 -0.0956,0.0336 -0.0547,0.0476 -0.0609,0.1303 -0.0139,0.18552 0.0578,0.0724 0.12963,0.13258 0.19549,0.19742 0.0526,0.0495 0.13518,0.0477 0.18552,-0.004 0.0509,-0.0529 0.049,-0.13701 -0.004,-0.18758 -0.063,-0.0556 -0.11896,-0.11808 -0.1778,-0.1778 -0.0226,-0.0268 -0.055,-0.0435 -0.0899,-0.0465 z m 0.61599,0.5147 c -0.017,-0.003 -0.0344,-0.002 -0.0512,0.002 l -5.2e-4,-5.1e-4 c -0.0341,0.008 -0.0637,0.0292 -0.0822,0.0589 -0.0386,0.061 -0.0211,0.14178 0.0393,0.18138 0.0328,0.0221 0.13133,0.0844 0.24042,0.1408 0.0648,0.0332 0.14426,0.008 0.17777,-0.0568 0.033,-0.0652 0.007,-0.1448 -0.0584,-0.17776 -0.0739,-0.0403 -0.14491,-0.0856 -0.21714,-0.1287 -0.0146,-0.009 -0.0309,-0.016 -0.048,-0.0191 z m 0.56739,0.42888 c -0.0223,0.0684 0.0142,0.14215 0.0822,0.16588 0.014,0.005 0.10424,0.0375 0.26718,0.0743 0.0712,0.0161 0.14196,-0.0286 0.15813,-0.0997 0.0161,-0.071 -0.0283,-0.14172 -0.0992,-0.15813 -0.0577,-0.0137 -0.1569,-0.0382 -0.24289,-0.0669 -0.066,-0.0211 -0.1421,0.0151 -0.16542,0.0846 z" fill="#000000" stroke-linecap="round" stroke-linejoin="round" stroke-dasharray="0.264583, 0.529166" stroke-dashoffset="0.105833"/></g></svg>