<svg xmlns="http://www.w3.org/2000/svg" version="1.1" viewBox="-5.0 -10.0 110.0 135.0">
 <path d="m80.75 84.945h-61.504c-0.39062 0-0.78125-0.066406-1.1523-0.20312-3.4961-1.2578-5.9336-4.2031-6.5117-7.8867-0.58203-3.6836 0.82812-7.2422 3.7773-9.5156 0.035156-0.023438 0.066406-0.054688 0.10547-0.078125 4.1133-2.9336 5.3594-5.0039 6.0664-10.07l4.0508-28.895c0.027344-0.19531 0.070313-0.39062 0.13672-0.57812 3.0664-9.4688 11.23-16.152 20.887-17.434v-1.8828c0-1.8789 1.5156-3.3984 3.3945-3.3984s3.3984 1.5234 3.3984 3.3984v1.8828c9.6562 1.2812 17.812 7.9648 20.879 17.434 0.0625 0.1875 0.10547 0.37891 0.13672 0.57812l4.0508 28.895c0.70703 5.0664 1.9531 7.1367 6.0742 10.07 0.035157 0.023437 0.066407 0.054687 0.10156 0.078125 2.9453 2.2734 4.3633 5.832 3.7812 9.5156-0.57812 3.6836-3.0156 6.6328-6.5156 7.8945-0.37109 0.12891-0.76172 0.19531-1.1523 0.19531zm-30.75 10.051c-3.2891 0-6.2656-1.3828-8.375-3.5938h16.746c-2.1055 2.2109-5.082 3.5938-8.3711 3.5938z"/></svg>