<svg xmlns="http://www.w3.org/2000/svg" version="1.1" viewBox="-5 -5 110.0 110.0">
 <path d="m18.609 31.668c0.25 0.17969 0.54297 0.27734 0.83203 0.27734 0.29297 0 0.58203-0.097656 0.83203-0.27734 0.58203-0.44531 14.445-10.902 14.445-19.168 0-4.5977-3.7344-8.332-8.332-8.332-2.8906 0-5.4453 1.4844-6.9453 3.7344-1.5-2.25-4.0547-3.7344-6.9453-3.7344-4.5977 0-8.332 3.7344-8.332 8.332 0 8.2656 13.859 18.723 14.445 19.168z"/>
 <path d="m65.277 30.555c0-4.5977-3.7344-8.332-8.332-8.332-2.8906 0-5.4453 1.4844-6.9453 3.7344-1.5-2.25-4.0547-3.7344-6.9453-3.7344-4.5977 0-8.332 3.7344-8.332 8.332 0 8.2656 13.859 18.723 14.445 19.168 0.25 0.17969 0.54297 0.27734 0.83203 0.27734 0.29297 0 0.58203-0.097656 0.83203-0.27734 0.58203-0.44531 14.445-10.902 14.445-19.168z"/>
 <path d="m79.723 31.668c0.25 0.17969 0.54297 0.27734 0.83203 0.27734 0.29297 0 0.58203-0.097656 0.83203-0.27734 0.58203-0.44531 14.445-10.902 14.445-19.168 0-4.5977-3.7344-8.332-8.332-8.332-2.8906 0-5.4453 1.4844-6.9453 3.7344-1.5-2.25-4.0547-3.7344-6.9453-3.7344-4.5977 0-8.332 3.7344-8.332 8.332 0 8.2656 13.859 18.723 14.445 19.168zm-6.1133-24.723c3.0703 0 5.5547 2.4844 5.5547 5.5547 0 0.1875 0.039063 0.36719 0.10938 0.53516 0.070312 0.16797 0.17187 0.32031 0.29687 0.45312 0.007813 0.007813 0.015626 0.007813 0.023438 0.015625l1.625 1.625-4.2734 3.207c-0.32422 0.24219-0.52344 0.60937-0.55078 1.0117-0.027343 0.40234 0.11719 0.79688 0.40234 1.082l2.7773 2.7773c0.26953 0.26953 0.625 0.40625 0.98047 0.40625 0.35547 0 0.71094-0.13672 0.98047-0.40625 0.54297-0.54297 0.54297-1.4219 0-1.9648l-1.6445-1.6445 4.2734-3.207c0.32422-0.24219 0.52344-0.60938 0.55078-1.0117s-0.11719-0.79688-0.40234-1.082l-2.3438-2.3438c0.26562-2.8164 2.6406-5.0078 5.5273-5.0078 3.0703 0 5.5547 2.4844 5.5547 5.5547 0 5.3203-8.3594 13.027-12.5 16.305-4.1406-3.2773-12.5-10.984-12.5-16.305 0-3.0703 2.4844-5.5547 5.5547-5.5547z"/>
 <path d="m84.609 75 10.82-10.805c0.54297-0.54297 0.54297-1.4297 0-1.9727-3.418-3.4023-7.9453-5.2773-12.777-5.2773-9.957 0-18.055 8.0977-18.055 18.055s8.0977 18.055 18.055 18.055c4.832 0 9.3594-1.875 12.777-5.2773 0.54297-0.54297 0.54297-1.4297 0-1.9727zm-1.957 15.277c-8.4297 0-15.277-6.8477-15.277-15.277s6.8477-15.277 15.277-15.277c3.625 0 7.043 1.25 9.7773 3.5273l-10.766 10.766c-0.54297 0.54297-0.54297 1.4297 0 1.9727l10.766 10.766c-2.7344 2.2773-6.1523 3.5273-9.7773 3.5273z"/>
 <path d="m78.484 65.277c-0.76953 0-1.3906 0.62109-1.3906 1.3906v1.3906c0 0.76953 0.62109 1.3906 1.3906 1.3906s1.3906-0.62109 1.3906-1.3906v-1.3906c0-0.76953-0.62109-1.3906-1.3906-1.3906z"/>
 <path d="m25 51.391c-11.484 0-20.832 9.3477-20.832 20.832v22.223c0 0.76563 0.625 1.3906 1.3906 1.3906h6.9453c1.6523 0 3.1523-0.73438 4.168-1.8906 1.0156 1.1523 2.5156 1.8906 4.168 1.8906h8.332c1.6523 0 3.1523-0.73438 4.168-1.8906 1.0156 1.1523 2.5156 1.8906 4.168 1.8906h6.9453c0.76562 0 1.3906-0.625 1.3906-1.3906v-22.223c0-11.484-9.3477-20.832-20.832-20.832zm-4.875 28.527c-1.3477 0-2.7227-0.27734-4.0273-0.875-2.375-1.0703-4.1797-3.0156-5.0977-5.4727-0.92969-2.457-0.83203-5.1094 0.23438-7.4727 0.15234-0.34766 0.42969-0.59766 0.77734-0.73438 0.34766-0.125 0.72266-0.10938 1.0547 0.042969l15.277 6.9453c0.70703 0.32031 1.0156 1.1406 0.69531 1.832-1.6406 3.6094-5.1953 5.7344-8.918 5.7344zm22.918-8.2656c0.015625 0.19531 0.015625 0.375 0.015625 0.57031v7.6797h-0.042969c-3.793 0-7.3047-2.1953-8.918-5.7227-0.30469-0.69531 0-1.5156 0.69531-1.832l7.9297-3.6094c0.17969 0.95703 0.29297 1.9297 0.32031 2.918z"/>
 <path d="m66.668 88.891h-6.9453c-0.76953 0-1.3906 0.62109-1.3906 1.3906s0.62109 1.3906 1.3906 1.3906h6.9453c0.76953 0 1.3906-0.62109 1.3906-1.3906s-0.62109-1.3906-1.3906-1.3906z"/>
 <path d="m55.555 88.891h-1.3906c-0.76953 0-1.3906 0.62109-1.3906 1.3906s0.62109 1.3906 1.3906 1.3906h1.3906c0.76953 0 1.3906-0.62109 1.3906-1.3906s-0.62109-1.3906-1.3906-1.3906z"/>
 <path d="m52.777 80.555c0 0.76953 0.62109 1.3906 1.3906 1.3906h6.9453c0.76953 0 1.3906-0.62109 1.3906-1.3906 0-0.76953-0.62109-1.3906-1.3906-1.3906h-6.9453c-0.76953 0-1.3906 0.62109-1.3906 1.3906z"/>
 <path d="m70.832 58.332c0-0.76953-0.62109-1.3906-1.3906-1.3906h-11.109c-0.76953 0-1.3906 0.62109-1.3906 1.3906s0.62109 1.3906 1.3906 1.3906h11.109c0.76953 0 1.3906-0.62109 1.3906-1.3906z"/>
 <path d="m54.168 59.723c0.76953 0 1.3906-0.62109 1.3906-1.3906s-0.62109-1.3906-1.3906-1.3906h-1.3906c-0.76953 0-1.3906 0.62109-1.3906 1.3906s0.62109 1.3906 1.3906 1.3906z"/>
 <path d="m66.668 62.5c0-0.76953-0.62109-1.3906-1.3906-1.3906h-4.168c-0.76953 0-1.3906 0.62109-1.3906 1.3906s0.62109 1.3906 1.3906 1.3906h4.168c0.76953 0 1.3906-0.62109 1.3906-1.3906z"/>
 <path d="m56.945 63.891c0.76953 0 1.3906-0.62109 1.3906-1.3906s-0.62109-1.3906-1.3906-1.3906h-1.3906c-0.76953 0-1.3906 0.62109-1.3906 1.3906s0.62109 1.3906 1.3906 1.3906z"/></svg>